<mxfile type="github" version="15.4.1" host="app.diagrams.net" modified="2021-10-03T07:47:07.513Z" agent="5.0 (Windows NT 10.0; Win64; x64) AppleWebKit/537.36 (KHTML, like Gecko) Chrome/58.0.3029.110 Safari/537.36 Edge/16.16299" etag="XZO2a83E-0WvT5ZJVJbm">
  <diagram id="Y8YyiqGrmehcowhvTtwS" name="Page-1">
    <mxGraphModel grid="0" dx="1258" dy="550" gridSize="10" guides="1" tooltips="1" connect="1" arrows="1" fold="1" page="1" pageScale="1" pageWidth="827" pageHeight="1169" math="0" shadow="0">
      <root>
        <mxCell id="0" />
        <mxCell id="1" parent="0" />
        <mxCell id="P1ckZCPZwNnB-1i_7xNO-24" value="" parent="1" style="rounded=1;whiteSpace=wrap;html=1;fontFamily=Comic Sans MS;fontSize=21;align=center;fillColor=default;strokeColor=#9673A6;strokeWidth=4;" vertex="1">
          <mxGeometry as="geometry" x="30" y="210" width="750" height="290" />
        </mxCell>
        <mxCell id="P1ckZCPZwNnB-1i_7xNO-5" value="&lt;font color=&quot;#009900&quot; face=&quot;Comic Sans MS&quot; style=&quot;font-size: 16px&quot;&gt;Input(s)&lt;/font&gt;" parent="1" style="rounded=1;whiteSpace=wrap;html=1;fillColor=#d5e8d4;strokeColor=#82b366;" vertex="1">
          <mxGeometry as="geometry" x="161" y="430" width="88" height="40" />
        </mxCell>
        <mxCell id="P1ckZCPZwNnB-1i_7xNO-8" value="" parent="1" style="endArrow=open;endFill=1;endSize=12;html=1;rounded=0;entryX=0.5;entryY=1;entryDx=0;entryDy=0;exitX=0.5;exitY=0;exitDx=0;exitDy=0;" edge="1" source="P1ckZCPZwNnB-1i_7xNO-5">
          <mxGeometry as="geometry" width="160" relative="1">
            <mxPoint as="sourcePoint" x="199" y="370" />
            <mxPoint as="targetPoint" x="204" y="400" />
          </mxGeometry>
        </mxCell>
        <mxCell id="P1ckZCPZwNnB-1i_7xNO-10" value="&lt;div style=&quot;text-align: center ; color: rgb(0 , 0 , 0) ; text-transform: none ; text-indent: 0px ; letter-spacing: normal ; font-family: &amp;#34;helvetica&amp;#34; ; font-size: 17px ; font-style: normal ; font-variant: normal ; font-weight: 400 ; text-decoration: none ; word-spacing: 0px ; background-color: transparent&quot;&gt;&lt;font face=&quot;Comic Sans MS&quot;&gt;&lt;font color=&quot;#663300&quot;&gt;π&lt;font style=&quot;font-size: 17px&quot;&gt;(s)&lt;/font&gt;&lt;/font&gt;&lt;/font&gt;&lt;/div&gt;&lt;div style=&quot;text-align: center ; color: rgb(0 , 0 , 0) ; text-transform: none ; text-indent: 0px ; letter-spacing: normal ; font-family: &amp;#34;helvetica&amp;#34; ; font-size: 17px ; font-style: normal ; font-variant: normal ; font-weight: 400 ; text-decoration: none ; word-spacing: 0px ; background-color: transparent&quot;&gt;&lt;font face=&quot;Comic Sans MS&quot;&gt;&lt;font color=&quot;#663300&quot;&gt;μ’&lt;/font&gt;&lt;font color=&quot;#005360&quot; style=&quot;font-size: 22px ; line-height: 19.8px&quot;&gt;&lt;font style=&quot;font-size: 22px&quot;&gt;&lt;font style=&quot;font-size: 22px&quot;&gt;&lt;font style=&quot;font-size: 22px&quot;&gt;&lt;font color=&quot;#663300&quot;&gt;&lt;span style=&quot;font-family: &amp;#34;quot&amp;#34;&quot;&gt;(s,a|&lt;/span&gt;&lt;span style=&quot;font-family: &amp;#34;quot&amp;#34;&quot;&gt;θ&lt;/span&gt;&lt;span style=&quot;font-family: &amp;#34;quot&amp;#34;&quot;&gt;^μ&#39;)&lt;/span&gt;&lt;/font&gt;&lt;/font&gt;&lt;/font&gt;&lt;span style=&quot;background-color: transparent ; color: rgb(0 , 0 , 0) ; font-family: &amp;#34;quot&amp;#34; ; font-weight: 400 ; letter-spacing: normal ; text-align: center ; text-decoration: none ; text-indent: 0px ; text-transform: none ; word-spacing: 0px&quot;&gt;&lt;font color=&quot;#663300&quot;&gt;&amp;nbsp;&lt;/font&gt; &lt;/span&gt;&lt;/font&gt;&lt;/font&gt;&lt;/font&gt;&lt;/div&gt;" parent="1" style="rounded=1;whiteSpace=wrap;html=1;fillColor=#fff2cc;strokeColor=#d6b656;" vertex="1">
          <mxGeometry as="geometry" x="420" y="240" width="130" height="70" />
        </mxCell>
        <mxCell id="P1ckZCPZwNnB-1i_7xNO-11" value="&lt;div style=&quot;text-align: center ; color: rgb(0 , 0 , 0) ; text-transform: none ; text-indent: 0px ; letter-spacing: normal ; font-family: &amp;#34;helvetica&amp;#34; ; font-size: 17px ; font-style: normal ; font-variant: normal ; font-weight: 400 ; text-decoration: none ; word-spacing: 0px ; background-color: transparent&quot;&gt;&lt;font color=&quot;#663300&quot; face=&quot;Comic Sans MS&quot; style=&quot;font-size: 17px&quot;&gt;V(s)&lt;/font&gt;&lt;/div&gt;&lt;div style=&quot;text-align: center ; color: rgb(0 , 0 , 0) ; text-transform: none ; text-indent: 0px ; letter-spacing: normal ; font-family: &amp;#34;helvetica&amp;#34; ; font-size: 17px ; font-style: normal ; font-variant: normal ; font-weight: 400 ; text-decoration: none ; word-spacing: 0px ; background-color: transparent&quot;&gt;&lt;font face=&quot;Comic Sans MS&quot; style=&quot;font-size: 22px ; line-height: 19.8px&quot;&gt;&lt;font style=&quot;font-size: 21px&quot;&gt;&lt;font color=&quot;#663300&quot; style=&quot;font-size: 21px&quot;&gt;&lt;font style=&quot;font-size: 21px&quot;&gt;&lt;font style=&quot;font-size: 21px&quot;&gt;&lt;span style=&quot;font-family: &amp;#34;quot&amp;#34;&quot;&gt;Q&#39;(s,a|&lt;/span&gt;&lt;span style=&quot;font-family: &amp;#34;quot&amp;#34;&quot;&gt;θ&lt;/span&gt;&lt;span style=&quot;font-family: &amp;#34;quot&amp;#34;&quot;&gt;^Q&#39;)&lt;/span&gt;&lt;/font&gt;&lt;/font&gt;&lt;span style=&quot;background-color: transparent ; font-family: &amp;#34;quot&amp;#34; ; font-variant: normal ; font-weight: 400 ; letter-spacing: normal ; text-align: center ; text-decoration: none ; text-indent: 0px ; text-transform: none ; word-spacing: 0px&quot;&gt;&amp;nbsp; &lt;/span&gt;&lt;/font&gt;&lt;/font&gt;&lt;/font&gt;&lt;/div&gt;" parent="1" style="rounded=1;whiteSpace=wrap;html=1;fillColor=#ffe6cc;strokeColor=#d79b00;" vertex="1">
          <mxGeometry as="geometry" x="620" y="240" width="140" height="70" />
        </mxCell>
        <mxCell id="P1ckZCPZwNnB-1i_7xNO-12" value="&lt;div&gt;&lt;font color=&quot;#000099&quot; face=&quot;Comic Sans MS&quot; style=&quot;font-size: 16px&quot;&gt;目标&lt;/font&gt;&lt;/div&gt;&lt;div&gt;&lt;font color=&quot;#000099&quot; face=&quot;Comic Sans MS&quot; style=&quot;font-size: 16px&quot;&gt;Network&lt;/font&gt;&lt;/div&gt;" parent="1" style="rounded=1;whiteSpace=wrap;html=1;fillColor=#dae8fc;strokeColor=#6c8ebf;" vertex="1">
          <mxGeometry as="geometry" x="560" y="340" width="90" height="60" />
        </mxCell>
        <mxCell id="P1ckZCPZwNnB-1i_7xNO-13" value="" parent="1" style="endArrow=open;endFill=1;endSize=12;html=1;rounded=0;entryX=0.5;entryY=1;entryDx=0;entryDy=0;" target="P1ckZCPZwNnB-1i_7xNO-10" edge="1">
          <mxGeometry as="geometry" width="160" relative="1">
            <mxPoint as="sourcePoint" x="590" y="340" />
            <mxPoint as="targetPoint" x="750" y="490" />
          </mxGeometry>
        </mxCell>
        <mxCell id="P1ckZCPZwNnB-1i_7xNO-14" value="" parent="1" style="endArrow=open;endFill=1;endSize=12;html=1;rounded=0;entryX=0.5;entryY=1;entryDx=0;entryDy=0;" target="P1ckZCPZwNnB-1i_7xNO-11" edge="1">
          <mxGeometry as="geometry" width="160" relative="1">
            <mxPoint as="sourcePoint" x="620" y="340" />
            <mxPoint as="targetPoint" x="545" y="320" />
          </mxGeometry>
        </mxCell>
        <mxCell id="P1ckZCPZwNnB-1i_7xNO-20" value="" parent="1" style="edgeStyle=orthogonalEdgeStyle;rounded=0;orthogonalLoop=1;jettySize=auto;html=1;fontSize=19;" target="P1ckZCPZwNnB-1i_7xNO-16" edge="1" source="P1ckZCPZwNnB-1i_7xNO-15">
          <mxGeometry as="geometry" relative="1" />
        </mxCell>
        <mxCell id="P1ckZCPZwNnB-1i_7xNO-15" value="&lt;div style=&quot;text-align: center ; text-transform: none ; text-indent: 0px ; letter-spacing: normal ; font-size: 17px ; font-style: normal ; font-variant: normal ; font-weight: 400 ; text-decoration: none ; word-spacing: 0px ; background-color: transparent&quot;&gt;&lt;font face=&quot;Comic Sans MS&quot;&gt;&lt;font color=&quot;#663300&quot;&gt;π&lt;font style=&quot;font-size: 17px&quot;&gt;(s)&lt;/font&gt;&lt;/font&gt;&lt;/font&gt;&lt;/div&gt;&lt;div style=&quot;text-align: center ; color: rgb(0 , 0 , 0) ; text-transform: none ; text-indent: 0px ; letter-spacing: normal ; font-size: 17px ; font-style: normal ; font-variant: normal ; font-weight: 400 ; text-decoration: none ; word-spacing: 0px ; background-color: transparent&quot;&gt;&lt;font face=&quot;Comic Sans MS&quot;&gt;&lt;font color=&quot;#663300&quot;&gt;μ&lt;/font&gt;&lt;font color=&quot;#005360&quot; style=&quot;font-size: 22px ; line-height: 19.8px&quot;&gt;&lt;font style=&quot;font-size: 22px&quot;&gt;&lt;font style=&quot;font-size: 22px&quot;&gt;&lt;font style=&quot;font-size: 22px&quot;&gt;&lt;font color=&quot;#663300&quot;&gt;&lt;span style=&quot;font-family: &amp;#34;quot&amp;#34;&quot;&gt;(s,a|&lt;/span&gt;&lt;span style=&quot;font-family: &amp;#34;quot&amp;#34;&quot;&gt;θ&lt;/span&gt;&lt;span style=&quot;font-family: &amp;#34;quot&amp;#34;&quot;&gt;^μ)&lt;/span&gt;&lt;/font&gt;&lt;/font&gt;&lt;/font&gt;&lt;span style=&quot;background-color: transparent ; color: rgb(0 , 0 , 0) ; font-family: &amp;#34;quot&amp;#34; ; font-variant: normal ; font-weight: 400 ; letter-spacing: normal ; text-align: center ; text-decoration: none ; text-indent: 0px ; text-transform: none ; word-spacing: 0px&quot;&gt;&lt;font color=&quot;#663300&quot;&gt;&amp;nbsp;&lt;/font&gt; &lt;/span&gt;&lt;/font&gt;&lt;/font&gt;&lt;/font&gt;&lt;/div&gt;" parent="1" style="rounded=1;whiteSpace=wrap;html=1;fillColor=#fff2cc;strokeColor=#d6b656;align=center;" vertex="1">
          <mxGeometry as="geometry" x="40" y="240" width="131" height="70" />
        </mxCell>
        <mxCell id="P1ckZCPZwNnB-1i_7xNO-16" value="&lt;div style=&quot;font-size: 17px&quot;&gt;&lt;font color=&quot;#663300&quot; face=&quot;Comic Sans MS&quot; style=&quot;font-size: 17px&quot;&gt;V(s)&lt;/font&gt;&lt;/div&gt;&lt;div style=&quot;font-size: 17px&quot;&gt;&lt;font face=&quot;Comic Sans MS&quot; style=&quot;line-height: 0.9 ; font-size: 22px&quot;&gt;&lt;font style=&quot;font-size: 22px&quot;&gt;&lt;font color=&quot;#663300&quot;&gt;&lt;font style=&quot;font-size: 22px&quot;&gt;&lt;font style=&quot;font-size: 22px&quot;&gt;&lt;span style=&quot;font-family: &amp;#34;quot&amp;#34; ; font-weight: 400&quot;&gt;Q(s,a|&lt;/span&gt;&lt;span style=&quot;font-family: &amp;#34;quot&amp;#34; ; font-weight: 400&quot;&gt;θ&lt;/span&gt;&lt;span style=&quot;font-family: &amp;#34;quot&amp;#34; ; font-weight: 400&quot;&gt;^Q)&lt;/span&gt;&lt;/font&gt;&lt;/font&gt;&lt;span style=&quot;text-align: center ; text-transform: none ; text-indent: 0px ; letter-spacing: normal ; font-family: &amp;#34;comic sans ms&amp;#34; ; font-style: normal ; font-variant: normal ; font-weight: 400 ; text-decoration: none ; word-spacing: 0px ; background-color: transparent&quot;&gt;&amp;nbsp; &lt;/span&gt;&lt;/font&gt;&lt;/font&gt;&lt;/font&gt;&lt;/div&gt;" parent="1" style="rounded=1;whiteSpace=wrap;html=1;fillColor=#ffe6cc;strokeColor=#d79b00;" vertex="1">
          <mxGeometry as="geometry" x="240" y="240" width="130" height="70" />
        </mxCell>
        <mxCell id="P1ckZCPZwNnB-1i_7xNO-17" value="&lt;font color=&quot;#000099&quot; face=&quot;Comic Sans MS&quot; style=&quot;font-size: 16px&quot;&gt;当前Network&lt;/font&gt;" parent="1" style="rounded=1;whiteSpace=wrap;html=1;fillColor=#dae8fc;strokeColor=#6c8ebf;" vertex="1">
          <mxGeometry as="geometry" x="161" y="340" width="90" height="60" />
        </mxCell>
        <mxCell id="P1ckZCPZwNnB-1i_7xNO-18" value="" parent="1" style="endArrow=open;endFill=1;endSize=12;html=1;rounded=0;entryX=0.5;entryY=1;entryDx=0;entryDy=0;" target="P1ckZCPZwNnB-1i_7xNO-15" edge="1">
          <mxGeometry as="geometry" width="160" relative="1">
            <mxPoint as="sourcePoint" x="191" y="340" />
            <mxPoint as="targetPoint" x="351" y="490" />
          </mxGeometry>
        </mxCell>
        <mxCell id="P1ckZCPZwNnB-1i_7xNO-19" value="" parent="1" style="endArrow=open;endFill=1;endSize=12;html=1;rounded=0;entryX=0.5;entryY=1;entryDx=0;entryDy=0;" target="P1ckZCPZwNnB-1i_7xNO-16" edge="1">
          <mxGeometry as="geometry" width="160" relative="1">
            <mxPoint as="sourcePoint" x="221" y="340" />
            <mxPoint as="targetPoint" x="146" y="320" />
          </mxGeometry>
        </mxCell>
        <mxCell id="P1ckZCPZwNnB-1i_7xNO-21" value="&lt;font color=&quot;#4c0099&quot; face=&quot;Comic Sans MS&quot; style=&quot;font-size: 16px&quot;&gt;Output(a)&lt;/font&gt;" parent="1" style="rounded=1;whiteSpace=wrap;html=1;fillColor=#e1d5e7;strokeColor=#9673a6;" vertex="1">
          <mxGeometry as="geometry" x="340" y="110" width="88" height="40" />
        </mxCell>
        <mxCell id="P1ckZCPZwNnB-1i_7xNO-23" value="" parent="1" style="edgeStyle=orthogonalEdgeStyle;rounded=0;orthogonalLoop=1;jettySize=auto;html=1;fontSize=19;" edge="1">
          <mxGeometry as="geometry" relative="1">
            <mxPoint as="sourcePoint" x="551" y="274.5" />
            <mxPoint as="targetPoint" x="620" y="274.5" />
          </mxGeometry>
        </mxCell>
        <mxCell id="P1ckZCPZwNnB-1i_7xNO-25" value="" parent="1" style="html=1;shadow=0;dashed=0;align=center;verticalAlign=middle;shape=mxgraph.arrows2.arrow;dy=0.71;dx=23;direction=north;notch=0;fontFamily=Comic Sans MS;fontSize=21;fontColor=#4C0099;strokeColor=#9673A6;strokeWidth=4;fillColor=default;" vertex="1">
          <mxGeometry as="geometry" x="370" y="160" width="31" height="50" />
        </mxCell>
      </root>
    </mxGraphModel>
  </diagram>
</mxfile>
